<?xml version="1.0" encoding="iso-8859-1"?>
<!-- Generator: Adobe Illustrator 19.0.0, SVG Export Plug-In . SVG Version: 6.00 Build 0)  -->
<svg xmlns="http://www.w3.org/2000/svg" xmlns:xlink="http://www.w3.org/1999/xlink" version="1.1" id="Capa_1" x="0px" y="0px" viewBox="0 0 400.896 400.896" style="enable-background:new 0 0 400.896 400.896;" xml:space="preserve" width="512px" height="512px">
<g>
	<g>
		<path d="M212.736,93.184L262.4,46.592c0,0,0-0.512,0.512-0.512c0.512-0.512,0.512-0.512,0.512-1.024v-0.512    c0-0.512,0-1.024,0-1.024s0,0,0-0.512v-0.512c0-0.512,0-1.024,0-1.024s0-0.512-0.512-0.512c0,0,0,0,0-0.512L240.896,2.56    c-1.024-1.536-2.56-2.56-4.608-2.56h-72.192c-2.048,0-3.584,1.024-4.608,2.56L136.96,39.936c0,0,0,0,0,0.512    c0,0,0,0.512-0.512,0.512c0,0.512,0,0.512,0,1.024v0.512c0,0,0,0,0,0.512c0,0.512,0,1.024,0,1.024v0.512    c0,0.512,0.512,0.512,0.512,1.024c0,0,0,0.512,0.512,0.512l49.664,46.592c-78.336,6.656-140.8,73.216-140.8,154.112    c0,84.992,69.12,154.112,154.112,154.112s154.112-69.12,154.112-154.112C354.56,165.888,292.096,99.84,212.736,93.184z     M212.224,79.872l12.8-31.744h20.992L212.224,79.872z M233.216,10.752L249.6,37.888H224l-15.872-27.136H233.216z M212.224,37.888    h-25.6l12.8-21.504L212.224,37.888z M167.168,10.752h24.064L175.36,37.888h-24.064L167.168,10.752z M154.88,48.128h19.456    l12.288,29.696L154.88,48.128z M185.088,48.128h28.672l-14.336,35.328L185.088,48.128z M200.448,390.144    c-78.848,0-143.872-64.512-143.872-143.36s64.512-143.872,143.872-143.872S344.32,167.424,344.32,246.784    S279.296,390.144,200.448,390.144z" fill="#FFFFFF"/>
	</g>
</g>
<g>
	<g>
		<path d="M293.12,153.6c-24.576-24.576-57.856-38.4-92.672-38.4c-34.816,0-68.096,13.824-92.672,38.4    c-51.712,51.2-51.712,134.656-0.512,185.856c25.6,25.6,59.392,38.4,92.672,38.4c33.28,0,67.072-12.8,92.672-38.4    c24.576-24.576,38.4-57.856,38.4-92.672S317.696,178.688,293.12,153.6z M285.44,331.776c-47.104,47.104-123.904,47.104-171.52,0    c-46.592-46.592-46.592-123.392,0.512-171.008c23.04-23.04,53.248-35.328,85.504-35.328c32.256,0,62.976,12.8,85.504,35.328    c23.04,23.04,35.328,53.248,35.328,85.504S307.968,309.248,285.44,331.776z" fill="#FFFFFF"/>
	</g>
</g>
<g>
</g>
<g>
</g>
<g>
</g>
<g>
</g>
<g>
</g>
<g>
</g>
<g>
</g>
<g>
</g>
<g>
</g>
<g>
</g>
<g>
</g>
<g>
</g>
<g>
</g>
<g>
</g>
<g>
</g>
</svg>
