<?xml version="1.0" encoding="iso-8859-1"?>
<!-- Generator: Adobe Illustrator 16.0.0, SVG Export Plug-In . SVG Version: 6.00 Build 0)  -->
<!DOCTYPE svg PUBLIC "-//W3C//DTD SVG 1.1//EN" "http://www.w3.org/Graphics/SVG/1.1/DTD/svg11.dtd">
<svg xmlns="http://www.w3.org/2000/svg" xmlns:xlink="http://www.w3.org/1999/xlink" version="1.1" id="Capa_1" x="0px" y="0px" width="512px" height="512px" viewBox="0 0 438.209 438.209" style="enable-background:new 0 0 438.209 438.209;" xml:space="preserve">
<g>
	<g>
		<path d="M12.193,281.192c11.037,39.381,46.877,66.695,87.915,66.695c47.458,0,87.101-36.684,90.997-83.831    c6.53-5.374,16.344-11.27,28.368-11.27c0.008,0,0.008,0,0.017,0c10.779,0.229,20.605,6.156,27.307,11.494    c4.003,47.015,43.637,83.606,90.984,83.606c40.96,0,76.754-27.23,87.858-66.512c9.702-3.313,14.19-15.977,12.043-34.624    c-0.321-2.765-1.026-5.029-1.948-6.929h0.405L359.645,103.4c-2.437-4.34-8.235-8.095-13.192-8.534l-50.605-4.506    c-5.482-0.487-9.951,3.683-9.951,9.107v9.223c0,5.488,4.529,9.483,9.971,8.896l53.191-6.163l35.77,66.773    c-13.85-8.352-29.983-13.124-47.047-13.124c-43.621,0-81.127,31.197-89.559,73.472c-9.345-5.109-18.83-7.798-28.27-7.999    l-1.012-0.008c-9.946,0-19.783,2.637-29.312,7.851c-8.502-42.178-45.987-73.308-89.52-73.308    c-16.978,0-33.023,4.725-46.835,13.002l35.702-66.644l53.19,6.164c5.4,0.593,9.977-3.408,9.977-8.896v-9.223    c0-5.424-4.454-9.648-9.962-9.109l-50.605,4.508c-4.959,0.449-10.752,4.194-13.193,8.54l-76.488,136.4h0.589    c-0.928,1.899-1.633,4.156-1.962,6.929C-1.583,265.054,2.756,277.649,12.193,281.192z M337.689,188.437    c38.179,0,69.244,31.063,69.244,69.244c0,38.183-31.065,69.24-69.244,69.24c-38.18,0-69.245-31.058-69.245-69.24    C268.444,219.5,299.509,188.437,337.689,188.437z M101.389,188.437c38.185,0,69.25,31.063,69.25,69.244    c0,38.183-31.066,69.24-69.25,69.24c-38.175,0-69.24-31.058-69.24-69.24C32.148,219.5,63.214,188.437,101.389,188.437z" fill="#FFFFFF"/>
	</g>
</g>
<g>
</g>
<g>
</g>
<g>
</g>
<g>
</g>
<g>
</g>
<g>
</g>
<g>
</g>
<g>
</g>
<g>
</g>
<g>
</g>
<g>
</g>
<g>
</g>
<g>
</g>
<g>
</g>
<g>
</g>
</svg>
